<svg width="77" height="116" viewBox="0 0 77 116" fill="none" xmlns="http://www.w3.org/2000/svg">
<path d="M76.9844 104.125V116H2.53125V105.609L39.7969 64.125C44.3802 59.0208 47.9219 54.6979 50.4219 51.1562C52.974 47.5625 54.7448 44.3594 55.7344 41.5469C56.776 38.6823 57.2969 35.7656 57.2969 32.7969C57.2969 29.0469 56.5156 25.6615 54.9531 22.6406C53.4427 19.5677 51.2031 17.1198 48.2344 15.2969C45.2656 13.474 41.6719 12.5625 37.4531 12.5625C32.401 12.5625 28.1823 13.5521 24.7969 15.5312C21.4635 17.4583 18.9635 20.1667 17.2969 23.6562C15.6302 27.1458 14.7969 31.1562 14.7969 35.6875H0.34375C0.34375 29.2812 1.75 23.4219 4.5625 18.1094C7.375 12.7969 11.5417 8.57812 17.0625 5.45312C22.5833 2.27604 29.3802 0.6875 37.4531 0.6875C44.6406 0.6875 50.7865 1.96354 55.8906 4.51562C60.9948 7.01562 64.901 10.5573 67.6094 15.1406C70.3698 19.6719 71.75 24.9844 71.75 31.0781C71.75 34.4115 71.1771 37.7969 70.0312 41.2344C68.9375 44.6198 67.401 48.0052 65.4219 51.3906C63.4948 54.776 61.2292 58.1094 58.625 61.3906C56.0729 64.6719 53.3385 67.901 50.4219 71.0781L19.9531 104.125H76.9844Z" fill="white"/>
</svg>
